# xmcd
#
# Track frame offsets:
#	150
#	16050
#	27195
#	45675
#	57878
#	68198
#	81158
#	96556
#	107709
#	120954
#	135437
#
# Disc length: 1977 seconds
#
# Revision: 1
# Processed by: cddbd v1.5.2PL0 Copyright (c) Steve Scherf et al.
# Submitted via: audiograbber 1.83.01
#
DISCID=8707b70b
DTITLE=Waylon Jennings - Greatest Hits
DYEAR=1979
DGENRE=Country
TTITLE0=Lonesome, On'ry And Mean
TTITLE1=Ladies Love Outlaws
TTITLE2=I've Always Been Crazy
TTITLE3=I'm A Ramblin' Man
TTITLE4=Only Daddy That'll Walk The Line
TTITLE5=Amanda
TTITLE6=Honky Tonk Heroes
TTITLE7=Mammas Don't Let Your Babies Grow Up To Be Cowboys
TTITLE8=Good Hearted Woman
TTITLE9=Luckenbach, Texas (Back To The Basics Of Love)
TTITLE10=Are You Sure Hank Done It This Way
EXTD=This CD was created from one of my LP's
EXTT0=
EXTT1=
EXTT2=
EXTT3=
EXTT4=
EXTT5=
EXTT6=
EXTT7=
EXTT8=
EXTT9=
EXTT10=
PLAYORDER=
